<svg width="18" height="33" viewBox="0 0 18 33" fill="none" xmlns="http://www.w3.org/2000/svg">
<g clip-path="url(#clip0_80_2641)">
<path d="M0.21 0C4.28 1.25 7.71 3.77 10.74 6.67L6.95 6.7C9.88 3.84 13.25 1.3 17.23 0L17.44 0.21C14.64 3.21 11.72 6.08 8.86 9.03L8.65 8.82L4.31 4.54C2.85 3.12 1.42 1.67 0 0.22L0.21 0Z" fill="#00FFEC"/>
<path d="M0.21 23C4.28 24.25 7.71 26.77 10.74 29.67L6.95 29.7C9.88 26.83 13.26 24.29 17.23 23L17.44 23.21C14.64 26.21 11.72 29.08 8.86 32.03L8.65 31.82L4.31 27.54C2.86 26.12 1.42 24.68 0 23.22L0.21 23Z" fill="#00FFEC"/>
</g>
<defs>
<clipPath id="clip0_80_2641">
<rect width="17.44" height="32.03" fill="white"/>
</clipPath>
</defs>
</svg>
