<svg width="109" height="27" viewBox="0 0 109 27" fill="none" xmlns="http://www.w3.org/2000/svg">
<path d="M0 26.51L8.45 0H11.67L3.22 26.51H0Z" fill="white"/>
<path d="M13.83 26.51L22.28 0H25.5L17.04 26.51H13.82H13.83Z" fill="white"/>
<path d="M27.66 26.51L36.11 0H39.33L30.87 26.51H27.65H27.66Z" fill="white"/>
<path d="M41.49 26.51L49.94 0H53.16L44.7 26.51H41.48H41.49Z" fill="white"/>
<path d="M55.32 26.51L63.77 0H66.99L58.53 26.51H55.31H55.32Z" fill="white"/>
<path d="M69.14 26.51L77.6 0H80.82L72.36 26.51H69.14Z" fill="white"/>
<path d="M82.97 26.51L91.43 0H94.65L86.19 26.51H82.97Z" fill="white"/>
<path d="M96.8 26.51L105.26 0H108.48L100.02 26.51H96.8Z" fill="white"/>
</svg>
