<svg width="724" height="106" viewBox="0 0 724 106" fill="none" xmlns="http://www.w3.org/2000/svg">
<path fill-rule="evenodd" clip-rule="evenodd" d="M687 73.4309V54.2841H642.022V36.5947H687V17.4804H618V105.392L642.022 105.48V73.4309H687Z" fill="white"/>
<path d="M724 0H662.569V3.21881H724V0Z" fill="white"/>
<path d="M724 14.4359H662.569V17.6548H724V14.4359Z" fill="white"/>
<path d="M724 9.62396H662.569V12.8428H724V9.62396Z" fill="white"/>
<path d="M724 4.81198H662.569V8.03079H724V4.81198Z" fill="white"/>
<path d="M724 36.7295H662.569V39.9483H724V36.7295Z" fill="white"/>
<path d="M724 51.1655H662.569V54.3843H724V51.1655Z" fill="white"/>
<path d="M724 46.3535H662.569V49.5723H724V46.3535Z" fill="white"/>
<path d="M724 41.5415H662.569V44.7603H724V41.5415Z" fill="white"/>
<path d="M724 73.4872H662.569V76.706H724V73.4872Z" fill="white"/>
<path d="M724 87.9231H662.569V91.1419H724V87.9231Z" fill="white"/>
<path d="M724 83.1111H662.569V86.33H724V83.1111Z" fill="white"/>
<path d="M724 78.2992H662.569V81.518H724V78.2992Z" fill="white"/>
<g clip-path="url(#clip0_59_2651)">
<path d="M0 69.52V35.85H19.37V40.5H6.45V50.69H17.03V55.34H6.45V69.51H0V69.52Z" fill="white"/>
<path d="M17.42 69.52L29.53 35.85H36L48.07 69.52H41.41L38.2 60.53H25.35L22.13 69.52H17.42ZM26.95 56.06H36.59L31.8 42.63L26.96 56.06H26.95Z" fill="white"/>
<path d="M51.42 69.52V35.85H63.04C65.42 35.85 67.22 36.16 68.48 36.82C69.73 37.47 70.71 38.45 71.43 39.74C72.15 41.06 72.51 42.54 72.51 44.2C72.51 46.18 71.99 48.03 70.94 49.78C69.87 51.54 68.4 52.88 66.48 53.79L76.63 69.52H68.77L61.04 55.75H57.49V69.52H51.42ZM57.49 51.14H59C61.65 51.14 63.5 50.52 64.53 49.26C65.54 47.99 66.06 46.58 66.06 44.98C66.06 43.61 65.65 42.51 64.81 41.7C63.99 40.89 62.28 40.48 59.75 40.48H57.49V51.14Z" fill="white"/>
<path d="M92.64 69.52V35.85H112.53V40.5H99.09V49.88H110.18V54.51H99.09V64.75H113.52V69.52H92.64Z" fill="white"/>
<path d="M113.97 69.52L126.07 35.85H132.54L144.6 69.52H137.94L134.73 60.53H121.88L118.66 69.52H113.96H113.97ZM123.5 56.06H133.13L128.32 42.63L123.51 56.06H123.5Z" fill="white"/>
<path d="M146.22 69.25V63.48C148.64 64.57 150.44 65.21 151.65 65.43C152.85 65.65 153.94 65.75 154.95 65.75C156.75 65.75 158.09 65.31 158.98 64.43C159.87 63.55 160.32 62.49 160.32 61.26C160.32 60.33 160.07 59.48 159.58 58.71C159.08 57.98 157.85 56.99 155.92 55.82L153.82 54.56C150.84 52.74 148.82 51.09 147.75 49.56C146.68 48.03 146.14 46.26 146.14 44.22C146.14 41.7 147.04 39.52 148.84 37.72C150.61 35.92 153.19 35 156.53 35C159.02 35 161.83 35.4 164.98 36.16V41.55C161.77 40.28 159.23 39.61 157.34 39.61C155.78 39.61 154.59 40 153.77 40.72C152.96 41.46 152.55 42.38 152.55 43.4C152.55 44.17 152.81 44.89 153.3 45.59C153.79 46.28 155 47.2 156.95 48.39L159.18 49.73C162.61 51.8 164.78 53.62 165.73 55.13C166.67 56.69 167.13 58.42 167.13 60.35C167.13 63.11 166.14 65.47 164.22 67.44C162.28 69.39 159.2 70.35 154.98 70.35C152.47 70.35 149.56 69.97 146.22 69.23V69.25Z" fill="white"/>
<path d="M179.15 69.52V40.51H168.04V35.85H196.71V40.5H185.61V69.52H179.15Z" fill="white"/>
<path d="M200.01 69.52V35.85H219.9V40.5H206.47V49.88H217.56V54.51H206.47V64.75H220.9V69.52H200.01Z" fill="white"/>
<path d="M224.75 69.52V35.85H236.38C238.76 35.85 240.56 36.16 241.82 36.82C243.06 37.47 244.04 38.45 244.75 39.74C245.47 41.06 245.83 42.54 245.83 44.2C245.83 46.18 245.31 48.03 244.26 49.78C243.21 51.54 241.74 52.88 239.81 53.79L249.96 69.52H242.09L234.38 55.75H230.81V69.52H224.73H224.75ZM230.83 51.14H232.32C234.99 51.14 236.84 50.52 237.87 49.26C238.9 47.99 239.4 46.58 239.4 44.98C239.4 43.61 238.98 42.51 238.15 41.7C237.34 40.89 235.65 40.48 233.08 40.48H230.83V51.14Z" fill="white"/>
<path d="M252.25 69.52V35.85H257.96L272.34 58.87V35.85H277.52V69.52H271.74L257.44 46.53V69.52H252.26H252.25Z" fill="white"/>
<path d="M296.56 69.52V35.85H302.27L316.63 58.87V35.85H321.81V69.52H316.03L301.72 46.53V69.52H296.55H296.56Z" fill="white"/>
<path d="M327.4 69.52V35.85H347.29V40.5H333.84V49.88H344.95V54.51H333.84V64.75H348.28V69.52H327.4Z" fill="white"/>
<path d="M357.55 69.52L349.81 35.85H355.91L361.57 60.5L366.92 35.85H372.33L377.39 60.36L383.34 35.85H387.83L379.68 69.52H373.5L368.73 46.41L363.72 69.52H357.55Z" fill="white"/>
<path d="M428.68 68.22C427.32 68.85 426.13 69.3 425.13 69.55C424.12 69.78 422.98 69.98 421.71 70.15C420.41 70.31 419.16 70.37 417.93 70.37C412.5 70.37 408.44 68.71 405.76 65.39C403.09 62.07 401.75 57.84 401.75 52.69C401.75 47.54 403.09 43.28 405.75 39.98C408.42 36.67 412.6 35.01 418.32 35.01C421.67 35.01 425.05 35.45 428.39 36.31V41.79C426.79 41.18 425.47 40.74 424.45 40.48C423.43 40.19 422.46 39.98 421.53 39.84C420.63 39.71 419.73 39.63 418.8 39.63C415.23 39.63 412.64 40.89 411.04 43.38C409.41 45.86 408.61 48.96 408.61 52.64C408.61 56.32 409.53 59.59 411.36 61.96C413.18 64.36 415.9 65.55 419.5 65.55C422.53 65.55 425.57 64.71 428.68 63.05V68.23V68.22Z" fill="white"/>
<path d="M433.21 69.52V35.85H453.09V40.5H439.67V49.88H450.77V54.51H439.67V64.75H454.1V69.52H433.21Z" fill="white"/>
<path d="M457.95 69.52V35.85H463.66L478.05 58.87V35.85H483.23V69.52H477.44L463.13 46.53V69.52H457.95Z" fill="white"/>
<path d="M497.64 69.52V40.51H486.52V35.85H515.2V40.5H504.1V69.52H497.64Z" fill="white"/>
<path d="M518.26 35.85H524.71V56.51C524.71 60.23 525.3 62.71 526.47 63.92C527.64 65.13 529.16 65.75 531 65.75C532.84 65.75 534.31 65.14 535.4 63.94C536.48 62.75 537.02 60.43 537.02 57V35.85H542.66V56.54C542.66 60.43 542.21 63.23 541.3 64.93C540.4 66.62 539.1 67.94 537.38 68.92C535.68 69.9 533.51 70.37 530.89 70.37C528.27 70.37 526.12 69.94 524.27 69.02C522.42 68.12 520.94 66.8 519.88 64.99C518.8 63.22 518.26 60.37 518.26 56.49V35.85Z" fill="white"/>
<path d="M549.06 69.52V35.85H560.69C563.07 35.85 564.89 36.16 566.14 36.82C567.37 37.47 568.35 38.45 569.09 39.74C569.81 41.06 570.16 42.54 570.16 44.2C570.16 46.18 569.65 48.03 568.6 49.78C567.54 51.54 566.06 52.88 564.14 53.79L574.29 69.52H566.44L558.7 55.75H555.16V69.52H549.07H549.06ZM555.16 51.14H556.63C559.33 51.14 561.16 50.52 562.17 49.26C563.2 47.99 563.71 46.58 563.71 44.98C563.71 43.61 563.3 42.51 562.46 41.7C561.64 40.89 559.95 40.48 557.4 40.48H555.15V51.14H555.16Z" fill="white"/>
<path d="M585.03 69.52V55.42L574.62 35.85H581.77L589.34 50.06L597.24 35.85H602.34L591.5 55.35V69.52H585.04H585.03Z" fill="white"/>
</g>
<defs>
<clipPath id="clip0_59_2651">
<rect width="602.34" height="35.37" fill="white" transform="translate(0 35)"/>
</clipPath>
</defs>
</svg>

